<?xml version="1.0" standalone="no"?>
<!DOCTYPE svg PUBLIC "-//W3C//DTD SVG 20010904//EN"
 "http://www.w3.org/TR/2001/REC-SVG-20010904/DTD/svg10.dtd">
<svg version="1.0" xmlns="http://www.w3.org/2000/svg"
 width="900.000000pt" height="900.000000pt" viewBox="0 0 900.000000 900.000000"
 preserveAspectRatio="xMidYMid meet">
<metadata>
Created by potrace 1.10, written by Peter Selinger 2001-2011
</metadata>
<g transform="translate(0.000000,900.000000) scale(0.100000,-0.100000)"
fill="#000000" stroke="none">
<path d="M5565 8949 c-101 -55 -179 -154 -277 -349 -38 -74 -73 -148 -78 -165
-5 -16 -26 -82 -48 -145 -21 -63 -47 -144 -56 -180 -10 -36 -24 -87 -31 -115
-30 -109 -54 -217 -89 -395 -9 -41 -22 -109 -30 -150 -32 -160 -95 -564 -150
-950 -8 -58 -22 -161 -31 -230 -9 -69 -22 -172 -30 -230 -8 -58 -21 -161 -30
-230 -9 -69 -22 -171 -30 -226 -8 -56 -15 -117 -15 -135 0 -19 -6 -68 -14
-109 -16 -79 -12 -121 16 -175 56 -108 205 -126 295 -36 32 31 63 114 63 165
0 17 6 76 15 131 8 55 21 155 30 223 8 67 22 177 30 245 9 67 20 154 26 192 6
39 15 106 19 150 4 44 13 107 18 140 6 33 18 113 28 178 10 64 22 117 26 117
5 0 250 -239 544 -532 294 -293 548 -541 566 -552 47 -30 144 -28 189 4 81 57
109 150 71 232 -11 24 -251 273 -660 684 l-643 646 6 47 c7 57 31 194 49 281
76 362 89 414 152 628 11 34 23 62 28 62 5 0 484 -475 1065 -1055 581 -580
1067 -1063 1081 -1073 30 -23 83 -32 139 -25 31 4 54 17 86 47 57 53 75 110
55 182 -12 47 -68 104 -1136 1174 -618 619 -1124 1129 -1124 1134 0 5 20 32
44 60 23 28 50 65 60 83 32 63 12 156 -46 210 -49 46 -138 66 -183 42z"/>
<path d="M6124 7040 c-22 -10 -55 -36 -74 -59 -29 -37 -33 -49 -33 -104 0 -34
5 -73 12 -87 7 -14 331 -343 718 -731 416 -417 703 -711 699 -718 -4 -6 -17
-11 -29 -11 -12 0 -53 -6 -92 -14 -68 -14 -143 -27 -345 -60 -52 -8 -136 -22
-186 -30 -50 -9 -106 -16 -125 -16 -19 0 -50 -4 -68 -10 -19 -5 -80 -14 -135
-20 l-101 -10 -140 138 c-77 77 -151 147 -165 156 -29 19 -130 22 -163 5 -44
-23 -87 -74 -103 -121 -15 -46 -15 -53 1 -101 9 -28 32 -67 51 -86 19 -20 34
-41 34 -47 0 -14 -33 -24 -80 -24 -19 0 -84 -7 -145 -15 -60 -9 -162 -23 -225
-31 -63 -8 -160 -21 -215 -29 -55 -8 -113 -15 -130 -15 -16 0 -73 -6 -125 -14
-52 -8 -149 -22 -215 -31 -233 -31 -341 -46 -435 -60 -52 -8 -111 -16 -130
-18 -34 -4 -79 -11 -277 -42 -285 -45 -439 -71 -543 -90 -41 -8 -115 -21 -165
-30 -112 -20 -221 -42 -302 -61 -34 -8 -71 -14 -84 -14 -12 0 -45 -6 -73 -14
-28 -8 -87 -22 -131 -31 -44 -9 -103 -23 -131 -31 -28 -8 -59 -14 -70 -14 -10
0 -39 -6 -64 -14 -25 -8 -73 -22 -107 -30 -148 -37 -191 -48 -243 -63 -69 -20
-143 -42 -195 -58 -22 -7 -87 -27 -145 -45 -58 -18 -121 -38 -140 -45 -244
-90 -392 -148 -510 -203 -102 -46 -308 -150 -346 -174 -22 -14 -46 -28 -54
-32 -51 -24 -233 -150 -335 -231 -226 -180 -275 -260 -226 -368 33 -72 99
-117 171 -117 54 0 89 19 178 97 40 34 76 63 80 63 5 0 508 -499 1119 -1110
611 -610 1126 -1118 1145 -1130 41 -25 135 -27 181 -4 83 42 119 148 81 240
-11 29 -303 326 -1105 1129 -599 600 -1088 1096 -1087 1104 6 26 308 178 543
271 164 66 290 110 311 110 5 0 342 -333 749 -740 407 -408 755 -750 773 -762
44 -27 146 -29 188 -2 55 34 94 99 94 157 0 90 16 72 -697 787 -370 371 -673
678 -673 682 0 10 55 38 76 38 9 0 37 7 63 15 63 19 214 57 366 90 44 10 100
24 124 31 25 8 55 14 68 14 13 0 49 6 81 14 53 14 103 24 300 62 39 8 105 21
145 29 77 16 137 20 137 8 0 -5 -17 -17 -37 -28 -20 -11 -49 -36 -65 -56 -26
-32 -29 -44 -29 -103 0 -46 5 -76 17 -94 9 -15 127 -138 263 -273 222 -222
252 -248 299 -263 51 -17 56 -17 100 -1 96 37 131 85 132 181 0 52 -4 67 -29
100 -16 21 -136 145 -267 275 -210 208 -245 238 -291 255 -29 10 -53 21 -53
25 0 4 21 10 48 14 26 3 83 12 127 20 102 17 242 40 375 60 58 9 144 22 191
30 47 8 98 15 114 15 16 0 67 7 114 15 47 8 138 21 201 30 63 8 167 22 230 30
253 34 505 67 690 90 223 28 353 45 465 60 61 8 162 21 225 30 362 48 357 47
643 90 259 40 534 87 672 117 28 6 70 14 95 18 25 4 68 13 95 20 28 6 77 19
110 27 484 119 726 216 938 375 136 104 168 198 101 299 -37 55 -95 89 -152
89 -53 0 -87 -17 -170 -85 -104 -86 -269 -162 -502 -232 -30 -9 -71 -21 -90
-28 -19 -7 -53 -16 -74 -19 l-39 -8 -801 800 c-694 692 -806 800 -842 810 -55
16 -81 14 -130 -8z"/>
<path d="M4592 4243 c-18 -9 -47 -33 -65 -54 -34 -39 -29 -19 -83 -349 -8 -52
-21 -131 -29 -175 -7 -44 -21 -125 -30 -180 -21 -131 -58 -327 -90 -485 -7
-36 -19 -91 -25 -123 -6 -32 -18 -61 -26 -64 -8 -3 -126 109 -317 301 -312
314 -351 345 -423 346 -69 0 -138 -42 -171 -104 -20 -39 -19 -138 3 -173 10
-15 193 -204 407 -420 215 -215 394 -398 398 -406 9 -15 8 -18 -57 -257 -31
-111 -98 -333 -119 -390 -26 -72 -37 -106 -47 -140 -5 -19 -14 -39 -19 -44 -5
-6 -9 -18 -9 -28 0 -16 -36 -98 -43 -98 -1 0 -356 353 -789 785 -490 488 -802
792 -827 805 -86 44 -192 12 -245 -74 -28 -45 -25 -145 5 -188 13 -18 123
-133 244 -254 121 -122 405 -408 632 -635 227 -228 502 -503 612 -612 111
-109 201 -204 201 -211 0 -7 -12 -35 -26 -62 -50 -94 -76 -139 -95 -169 -10
-16 -22 -37 -26 -45 -27 -57 -165 -240 -258 -343 -38 -43 -78 -93 -87 -110
-47 -89 3 -209 104 -252 105 -43 186 8 363 230 81 102 207 284 231 335 4 8 18
32 32 54 26 41 135 257 175 346 24 53 66 153 128 305 31 76 76 202 89 250 4
17 14 46 21 65 39 112 37 105 84 270 9 30 22 75 29 100 14 46 34 123 60 228 8
31 21 84 30 117 8 33 22 92 31 130 9 39 23 96 31 127 8 32 14 67 14 79 0 12 6
45 14 73 8 28 22 89 31 136 9 47 23 117 30 155 8 39 21 111 30 160 9 50 22
124 30 165 8 41 21 120 30 175 28 174 46 288 61 370 8 44 14 117 14 162 l0 82
-48 49 c-62 64 -139 80 -210 45z"/>
</g>
</svg>
